<svg id="Layer_1" data-name="Layer 1" xmlns="http://www.w3.org/2000/svg" viewBox="0 0 575.25 680.21"><defs><style>.cls-1{fill:#f9e100;}.cls-2{fill:#fff;}.cls-3{fill:#231f20;}</style></defs><title>GratSee-HiResLogo-Vector</title><path id="Bow_Color" data-name="Bow Color" class="cls-1" d="M728.08,212.51,597.7,358.05c-21.16-19.26-40.29-18.5-58.48,4L419.53,212.36,309.06,332l197.35,45.5-.66,4.65H626.69c-.19-1.46-.38-2.92-.56-4.37l183.77-46Z" transform="translate(-276.97 -184.36)"/><g id="Box_Color" data-name="Box Color"><polygon class="cls-2" points="16.63 193.34 16.63 323.34 57.96 323.34 57.96 664.67 524.63 664.67 524.63 323.34 558.63 323.34 558.63 190.01 16.63 193.34"/></g><path id="Outline" class="cls-3" d="M828.19,352.93a28,28,0,0,0,4.8-37l-40.93-59.64-40.89-59.58a28,28,0,0,0-21.28-12.1c-.61,0-1.21-.06-1.81-.06a28,28,0,0,0-20.85,9.32l-49.7,55.47-64.68,72.2A59.15,59.15,0,0,0,569,316.34a56,56,0,0,0-25.57,6.14l-63.19-79L441.4,194.87a28,28,0,0,0-20.87-10.5h-1a28,28,0,0,0-20.57,9l-19.32,20.91L288.5,313a28,28,0,0,0,5.25,42.44A28,28,0,0,0,277,381.06V492a28,28,0,0,0,26.65,28l15.15.73V836.57a28,28,0,0,0,28,28H788.35a28,28,0,0,0,28-28V521.8c0-.41,0-.82,0-1.23h7.9a28,28,0,0,0,28-28V380.65A28,28,0,0,0,828.19,352.93ZM419.53,212.36,539.22,362c9.61-11.88,19.49-17.69,29.78-17.69,9.19,0,18.72,4.63,28.7,13.71L728.08,212.51,809.9,331.73,665.22,368H465.15L309.06,332Zm404.7,169.75V492.57H504V688.35H647.32V659.61H533.59V521.8H788.35V836.57H346.77V494L305,492V382.52H824.23v-1.87h0Z" transform="translate(-276.97 -184.36)"/></svg>